<svg id="Layer_1" data-name="Layer 1" xmlns="http://www.w3.org/2000/svg" viewBox="0 0 304.85 304.87"><defs><style>.cls-1{fill:#733326;}</style></defs><path class="cls-1" d="M188.11,212.94c-.21-4.48,1.14-10.09-1.06-13.11s-7.94-3-12.1-4.44c-14.83-5.08-25.74-14.41-31.27-29.34-2.67-7.23-.38-13.45,4.81-18.7s11.45-7.13,18.33-4.63c15.93,5.78,25.53,17.55,30,33.61,3.06,10.93,3,10.3,14.33,11.16,11.81.9,20.9-2,28.72-11.52,7.35-8.9,8.19-8.35,2.6-18.19a50.13,50.13,0,0,1-5.06-39.07c2.39-9,8.66-14.83,16.39-15.11,11.56-.43,17.49,3.27,20.9,13.69,5.19,15.87,2.21,30.68-7.12,44.16-2.88,4.16-3.07,6.89,1.07,9.89a17.5,17.5,0,0,1,4.6,4.56c9.32,14.85,24,11.06,37.64,10.86,1.06,0,2.69-2.58,3-4.17,3.15-15.61,10.57-28.28,24.5-36.63,9.14-5.47,17.52-5.32,24.12.38,7.87,6.8,9.18,16.29,3.24,26.17-7.68,12.78-18.91,20.82-33.47,24.13-7.59,1.73-6.77,1.85-7.79,9.68-1.94,15,2.4,26.69,14.75,35.85,5.87,4.35,5.44,5.23,11.94,1.24,14.14-8.69,29-11.54,44.85-5.59,8.45,3.17,12.23,8.57,12.34,16.85.12,9.12-3.33,15-11.89,18.24-14.72,5.53-29.13,4.28-42.74-3.72-9.07-5.34-8.38-4.73-16.33,1.69-10.47,8.45-14.4,18.38-12.94,31.63,1,9.4.16,9.63,9.13,12.18,13.34,3.79,24.11,11,31.68,22.79,8.49,13.23,3,28.79-11.67,31.09-4.35.68-9.68-.87-13.73-3-14.32-7.48-22.8-19.71-25.48-35.59-.84-5-3.17-5.55-7.57-6.15-15.51-2.13-27.73,2.28-37.31,15.09-4.51,6-5.32,5.49-1.35,11.89,8.35,13.47,11,27.84,6.2,43.09-4.27,13.6-18.23,18.61-29.43,10.85-5.46-3.78-7.51-9.64-8.74-15.76a48.88,48.88,0,0,1,9-40.21c2.4-3.26,2.26-5.27-.67-7.94-4.55-4.15-8.47-9-13.23-12.89a19.4,19.4,0,0,0-9.63-3.94c-5.59-.65-11.32,0-17-.27-4-.17-5.79,1-6.58,5.31-3,16.64-11.44,29.68-27,37.43-9,4.47-16.52,3.37-22.82-3.14-6.5-6.72-7.66-14.74-2.88-23.4,7.89-14.3,20.17-22.88,36.1-25.88,5-.93,7.07-2.92,6.47-7.85a10.27,10.27,0,0,1-.09-3.49c4.11-17.38-7.55-26.91-18.45-36.68-1-.87-3.65-.65-5.12,0-6.35,2.82-12.29,6.87-18.86,8.84-11.33,3.4-22.75,2.75-33.36-3.3-7.13-4.07-9.23-10.62-8.45-18.32.68-6.84,4.19-11.81,10.62-14.54,17.44-7.4,33.64-4,48.78,6.15,3.61,2.41,5.81,2.18,8.43-.9a46,46,0,0,1,6-6C185.55,231.48,190.72,223.89,188.11,212.94ZM312.9,255.73c0-6.33.32-12.68-.15-19a13.52,13.52,0,0,0-3.25-7.81Q296.26,215,282.28,201.8a12.19,12.19,0,0,0-7.47-2.94c-12-.32-24,0-36-.29a12.79,12.79,0,0,0-10.16,4.16c-8.6,8.82-17.48,17.36-26,26.29a12.09,12.09,0,0,0-3.21,7.31c-.33,12.82-.3,25.65,0,38.47a11.38,11.38,0,0,0,2.9,7Q216,296,230.27,309.64a10.54,10.54,0,0,0,6.48,2.71q19.49.38,39,0a10.57,10.57,0,0,0,6.51-2.68c9.38-9,18.62-18.11,27.59-27.49a12.64,12.64,0,0,0,3-7.45C313.2,268.41,312.92,262.06,312.9,255.73ZM326,325c.11,12.55,9.56,27.46,20.41,31.41,2.73,1,6.94.13,9.58-1.41,3.5-2.06,3.42-6.51,1.13-9.34-4.54-5.59-9.32-11.22-15-15.56A24,24,0,0,0,326,325Zm29-69.27c8.09,8.88,27.81,12.67,37.73,7a10,10,0,0,0,4.4-7c.12-2.21-2-5.49-4-6.69C383.11,243.21,363.19,246.85,355,255.73Zm-99.87-98c9.55-9.36,12.81-26.23,8.48-37.72-1.3-3.42-3.33-5.64-7.3-5.63a7.35,7.35,0,0,0-7.52,5.39,34.65,34.65,0,0,0-.52,22.06C249.88,147.06,252.54,152,255.08,157.74Zm72.45,28c10.25-.26,23.6-9.48,28.78-18.92,2.12-3.86,3.34-7.79-.46-11.34-3.55-3.33-7.48-2.25-11-.1A39.23,39.23,0,0,0,326,182.29C325.79,183.46,327.15,185,327.53,185.79ZM163,357.26a19.76,19.76,0,0,0,4.5-1.62,37.33,37.33,0,0,0,16.38-19.47c1.24-3.38,1.33-7.19,1.94-10.8-3.48.76-7.08,1.19-10.43,2.34-9.46,3.26-16.15,9.83-20.29,18.78C152.49,352.2,155.82,357.09,163,357.26ZM246.89,379a95.43,95.43,0,0,0,1.27,9.87c1,4.09,3,7.72,7.86,7.73s7.35-3.55,8.43-7.85c2.87-11.46.64-22.1-5.65-32-1.82-2.86-3.46-2.73-5.13.08C249.61,363.61,246.47,370.7,246.89,379Zm-61-192.59c.71-11.9-9.36-27-20-31.61-3.28-1.41-6.38-1.73-9.22,1-3,2.85-3,6.22-1.36,9.6a34.63,34.63,0,0,0,17.58,16.84C176.92,184,181.37,184.93,185.92,186.36ZM158.3,255.77c-12.06-9.06-24-11.52-37.24-7.46-3.79,1.16-6,3.59-5.77,7.69s2.74,6.39,6.41,7.33c10.21,2.6,20.16,1.9,29.59-3.09C153.42,259.12,155.36,257.66,158.3,255.77Zm57-56.86c-5.35,0-9.67-.07-14,.07a2.36,2.36,0,0,0-1.62,1.62c-.14,4.42-.08,8.84-.08,13.31Zm51.08,126.71-.91-1H246.75l-1.37,2c3.06,2.47,6.05,5,9.23,7.35.72.53,2.51.68,3.07.18C260.72,331.45,263.53,328.49,266.41,325.62Zm58.89-80.91v20.53l1.93,1.36c2.48-3.07,5.08-6.06,7.35-9.27a3.61,3.61,0,0,0,0-3.45C332,251,329,248.35,325.3,244.71Zm-26.46,67.62c3.71,0,7.79.06,11.85-.07.65,0,1.79-.88,1.81-1.38.14-4.28.08-8.57.08-12.77Zm-85.67.09-13.68-13.74c0,3.67-.09,7.72.09,11.75a2.71,2.71,0,0,0,1.85,1.9C205.62,312.51,209.82,312.42,213.17,312.42ZM186.4,265.94l1-.83V246.18l-1.22-.59c-2.88,2.85-5.84,5.62-8.55,8.62a3.13,3.13,0,0,0,.2,3C180.55,260.26,183.52,263.06,186.4,265.94Zm126.22-52.53c0-4.42.06-8.58-.08-12.72a2.34,2.34,0,0,0-1.65-1.56c-4.15-.13-8.31-.07-12.9-.07Zm-47-26.71,1.35-2.09c-2.81-2.31-5.5-4.8-8.5-6.83a4.65,4.65,0,0,0-4.21-.21c-3.23,2.19-6.13,4.87-9.16,7.36l1.28,1.77Z" transform="translate(-103.57 -103.57)"/><path class="cls-1" d="M301.18,255.84c-1.28,2-2.07,3.89-3.41,5.23q-18.45,18.6-37.1,37c-3.74,3.68-6.51,3.56-10.34-.26q-18.39-18.3-36.57-36.79c-3.91-4-3.94-6.71,0-10.74,12.25-12.44,24.66-24.72,37-37.1,3.41-3.42,6.67-3.23,10,.06,12.37,12.32,24.78,24.61,37.06,37C299.19,251.7,300,253.79,301.18,255.84Zm-45.58,30a22.73,22.73,0,0,0,2.8-2c8.53-8.42,17-17,25.56-25.28,2.59-2.51,1.66-4.06-.4-6.13-8.11-8.14-16.23-16.27-24.07-24.66-3-3.16-4.93-2.81-7.7.06q-12,12.41-24.26,24.46c-2.4,2.36-2.79,4-.18,6.52,8.53,8.19,16.86,16.57,25.29,24.85A28.83,28.83,0,0,0,255.6,285.85Z" transform="translate(-103.57 -103.57)"/></svg>